<svg width="21" height="21" viewBox="0 0 21 21" fill="none" xmlns="http://www.w3.org/2000/svg">
<path d="M15.7919 10.5407C15.1645 10.4487 14.5529 10.2703 13.9744 10.0107C15.7588 8.44167 17.6167 6.95833 19.5419 5.56569L19.6669 5.47819L19.7419 5.34069C20.089 4.60924 20.1835 3.78324 20.0104 2.99231C19.8373 2.20139 19.4065 1.49032 18.7856 0.970692C18.2107 0.438842 17.48 0.106014 16.7014 0.0213793C15.9228 -0.0632558 15.1376 0.104791 14.4619 0.500692L14.3044 0.666942C12.4336 3.2647 10.3836 5.72861 8.16939 8.04069C5.81054 10.1414 3.29583 12.0602 0.646892 13.7807L0.154392 14.0907V14.3782C-0.0315952 15.1583 -0.0497681 15.9689 0.101076 16.7566C0.25192 17.5442 0.568341 18.2908 1.02939 18.9469C1.38371 19.3159 1.81383 19.6037 2.2901 19.7903C2.76638 19.977 3.27747 20.0582 3.78814 20.0282C4.22485 20.0511 4.65991 19.959 5.0499 19.7611C5.43989 19.5633 5.77116 19.2666 6.01064 18.9007C6.31689 18.5157 8.59189 15.6407 11.0169 13.0157C11.3519 13.5957 11.6119 14.2694 11.7594 14.9844C11.9166 16.2885 11.7452 17.6111 11.2606 18.8319L13.3669 16.2782L15.0294 17.5282C14.9827 16.1108 14.737 14.7071 14.2994 13.3582C13.993 12.8 13.6078 12.2889 13.1556 11.8407C13.6631 12.2732 14.2444 12.6444 14.8706 12.9332C16.0456 13.3557 17.3569 13.6482 18.7156 13.7732L17.5294 12.1907L20.0294 10.0282C18.9077 10.3884 17.7363 10.5702 16.5581 10.5669C16.2881 10.5669 16.0206 10.5578 15.7556 10.5394L15.7919 10.5407ZM15.2294 1.50319C15.5569 1.3426 15.9171 1.25962 16.2819 1.26069C16.9144 1.26069 17.4894 1.50569 17.9181 1.90569C18.3159 2.22512 18.6021 2.66239 18.7358 3.1547C18.8694 3.64701 18.8435 4.169 18.6619 4.64569C18.0544 5.02944 15.7294 6.79194 13.4794 8.77944C13.4154 8.15272 13.1172 7.57325 12.6444 7.15694C12.4327 6.97572 12.1854 6.84075 11.9185 6.76067C11.6516 6.6806 11.3709 6.65719 11.0944 6.69194C12.5512 5.02637 13.931 3.29497 15.2294 1.50319ZM3.40439 14.7907C3.50058 14.724 3.61484 14.6882 3.73189 14.6882L3.78189 14.6907H3.86689C4.09064 14.7557 4.28439 14.8682 4.44314 15.0169L3.35439 15.9157C3.22084 15.6375 3.16925 15.3271 3.20564 15.0207C3.24017 14.9222 3.31074 14.8405 3.40314 14.7919L3.40439 14.7907ZM5.02939 18.1532C4.90639 18.3709 4.72094 18.5467 4.49699 18.6579C4.27305 18.7691 4.0209 18.8105 3.77314 18.7769C3.43309 18.8085 3.09027 18.7643 2.76932 18.6476C2.44838 18.5309 2.15726 18.3445 1.91689 18.1019C1.4397 17.3918 1.1859 16.555 1.18814 15.6994C1.18898 15.3853 1.22106 15.0811 1.28439 14.7869L2.16689 14.2157C2.04939 14.3907 1.96189 14.5957 1.91814 14.8169C1.84991 15.6857 2.08637 16.5511 2.58689 17.2644L3.02939 17.8144L5.15439 16.0644C5.36678 16.7594 5.3197 17.5078 5.02189 18.1707L5.02939 18.1532ZM6.10439 15.0907C5.67777 14.3434 4.99339 13.7772 4.17939 13.4982C4.09064 13.4832 4.01689 13.4782 3.94189 13.4782C3.86689 13.4782 3.79314 13.4832 3.72064 13.4907C3.57525 13.4747 3.42854 13.4747 3.28314 13.4907C5.01452 12.3128 6.67878 11.0392 8.26814 9.67569C8.76564 9.76444 9.28314 9.98819 9.68189 10.3419C10.0531 10.7332 10.2819 11.2657 10.2819 11.8532L10.2794 11.9707C8.96752 13.3774 7.71638 14.8396 6.52939 16.3532C6.46532 15.902 6.31373 15.4676 6.08314 15.0744L6.10439 15.0907Z" fill="white"/>
</svg>
