<svg width="31" height="28" viewBox="0 0 31 28" fill="none" xmlns="http://www.w3.org/2000/svg">
<path d="M19.6249 2H21.095C21.4849 2 21.8588 2.14867 22.1345 2.4133C22.4102 2.67793 22.565 3.03685 22.565 3.4111V8.34995M26.9752 4.8222C27.3633 4.98024 27.7396 5.12841 28.1042 5.2667C28.463 5.41287 28.7467 5.68988 28.8928 6.0368C29.039 6.38373 29.0355 6.77215 28.8833 7.11665L25.5051 14.6999M2.87227 6.51129L13.3655 2.12418C13.5386 2.05294 13.7249 2.0157 13.9133 2.01465C14.1016 2.0136 14.2883 2.04877 14.4623 2.11807C14.6363 2.18738 14.7941 2.28943 14.9264 2.41819C15.0586 2.54696 15.1627 2.69984 15.2324 2.86783L22.471 19.6627C22.6214 20.0033 22.6265 20.387 22.4852 20.7311C22.3439 21.0753 22.0674 21.3524 21.7154 21.5028L11.2236 25.8899C11.0504 25.9614 10.864 25.9988 10.6755 26C10.4869 26.0011 10.3 25.966 10.1259 25.8967C9.9517 25.8274 9.79376 25.7253 9.6614 25.5964C9.52903 25.4675 9.42491 25.3144 9.35518 25.1463L2.11666 8.34995C1.96621 8.00939 1.96109 7.62573 2.10241 7.28157C2.24373 6.93742 2.52019 6.66171 2.87227 6.51129Z" stroke="white" stroke-width="3" stroke-linecap="round" stroke-linejoin="round"/>
</svg>
