<svg width="14" height="14" viewBox="0 0 14 14" fill="none" xmlns="http://www.w3.org/2000/svg">
<path d="M6.9999 11.6667H12.2499M8.7499 2.91669L10.4999 4.66669M9.55257 2.11286C9.78479 1.88064 10.0997 1.75018 10.4282 1.75018C10.7566 1.75018 11.0715 1.88064 11.3037 2.11286C11.536 2.34508 11.6664 2.66004 11.6664 2.98845C11.6664 3.31685 11.536 3.63181 11.3037 3.86403L4.2979 10.8704C4.15913 11.0092 3.98758 11.1107 3.79915 11.1656L2.12382 11.6544C2.07363 11.6691 2.02042 11.67 1.96977 11.657C1.91912 11.644 1.87289 11.6177 1.83592 11.5807C1.79894 11.5437 1.77259 11.4975 1.75961 11.4468C1.74664 11.3962 1.74751 11.343 1.76215 11.2928L2.25099 9.61744C2.30595 9.42922 2.40747 9.25789 2.54615 9.11928L9.55257 2.11286Z" stroke="white" stroke-linecap="round" stroke-linejoin="round"/>
</svg>
