<svg width="27" height="27" viewBox="0 0 27 27" fill="none" xmlns="http://www.w3.org/2000/svg">
<path d="M17.5 26.25L8.75 23.1875L1.96875 25.8125C1.48264 26.0069 1.03299 25.9525 0.619792 25.6492C0.206597 25.3458 0 24.9385 0 24.4271V4.01042C0 3.69444 0.0913888 3.41493 0.274167 3.17188C0.456944 2.92882 0.705833 2.74653 1.02083 2.625L8.75 0L17.5 3.0625L24.2812 0.4375C24.7674 0.243055 25.217 0.297986 25.6302 0.602292C26.0434 0.906597 26.25 1.31347 26.25 1.82292V22.2396C26.25 22.5556 26.1591 22.8351 25.9773 23.0781C25.7955 23.3212 25.5461 23.5035 25.2292 23.625L17.5 26.25ZM16.0417 22.6771V5.61458L10.2083 3.57292V20.6354L16.0417 22.6771ZM18.9583 22.6771L23.3333 21.2188V3.9375L18.9583 5.61458V22.6771ZM2.91667 22.3125L7.29167 20.6354V3.57292L2.91667 5.03125V22.3125Z" fill="white"/>
</svg>
