<svg width="666" height="736" viewBox="0 0 666 736" fill="none" xmlns="http://www.w3.org/2000/svg">
<path fill-rule="evenodd" clip-rule="evenodd" d="M559.265 81.9405V83.7611L559.265 519.224L559.265 577.885V580.044L557.112 579.879L455.416 572.103L453.569 571.961V570.108L453.568 519.223L453.569 250.125L208.712 236.588V549.171V551.337L206.552 551.165L109.341 543.388L107.5 543.241L107.5 541.394L107.5 455.215V421.357L107.5 387.5L107.5 249.5L107.5 216.5L107.5 47.2886L107.5 45L109.768 45.3066L206.98 58.4488L208.712 58.683V60.4308L208.712 110.614L453.569 128.272L453.569 74.1897L453.569 71.9926L455.756 72.1985L557.452 81.7699L559.265 81.9405ZM457.569 76.3868L457.569 130.422V132.571L455.425 132.417L206.568 114.47L204.712 114.336V112.475L204.712 62.1786L111.5 49.5772L111.5 214.5H176.5V218.5L111.5 218.5L111.5 247.5H174.91V251.5H111.5L111.5 385.5H174.91V389.5H111.5L111.5 419.357H153V423.357H111.5L111.5 453.215H172.91L172.91 419.5H176.91V455.215V457.215H174.91H111.5L111.5 539.548L204.712 547.005L204.712 234.474V232.36L206.822 232.477L455.679 246.236L457.569 246.34V248.233L457.568 519.223L457.569 568.255L555.265 575.726L555.265 519.224L555.265 323.5H490V319.5H555.265V253.822L488.374 253.822V249.822L555.265 249.822V85.5817L457.569 76.3868ZM177.606 316.376H177.106H172.321H167.535H162.749H157.964H153.776H148.99H144.205H134.633H124.463H114.294H113.794V315.876V302.715V293.742V284.17V275.795V264.728V253.661V253.161H114.294H126.258H135.231L144.205 253.161H148.99H153.776H157.964H162.749H167.535H172.321H177.106H177.606V253.661V279.983V288.956V315.876V316.376ZM176.606 315.376V289.456H172.821V315.376H176.606ZM171.821 315.376V289.456H168.035V315.376H171.821ZM167.035 315.376V289.456H163.249V315.376H167.035ZM162.249 315.376V289.456H158.464V315.376H162.249ZM157.464 315.376V289.456H154.276V315.376H157.464ZM153.276 315.376V289.456H149.49V315.376H153.276ZM148.49 315.376V289.456L144.705 289.456V315.376H148.49ZM143.705 315.376V291.855L135.341 315.376H143.705ZM134.28 315.376L143.496 289.456H142.084L125.38 315.376H134.28ZM124.191 315.376L138.982 292.423L115.52 315.376H124.191ZM114.794 314.687L140.96 289.089L139.44 288.329L114.794 302.999V314.687ZM114.794 301.835L138.919 287.475V286.643L114.794 294.11V301.835ZM114.794 293.063L138.919 285.596V284.67H114.794V293.063ZM114.794 283.67H138.919V283.351L114.794 276.458V283.67ZM114.794 275.418L138.919 282.311V281.449L114.794 265.653V275.418ZM114.794 264.458L136.378 278.591L114.794 254.95V264.458ZM115.427 254.161L139.533 280.563L141.108 279.775L125.973 254.161H115.427ZM127.134 254.161L142.097 279.483H142.339L134.858 254.161H127.134ZM135.9 254.161L143.488 279.841L143.677 280.483L143.008 280.483H141.93L139.919 281.488V282.974V284.17V285.965V287.45L141.93 288.456H144.205L148.99 288.456H153.776H157.964H162.749H167.535H172.321H176.606V280.483H172.321H167.535H162.749H157.964H153.776H148.99H144.205H143.705V279.983V254.161L135.9 254.161ZM144.705 254.161V279.483H148.49V254.161H144.705ZM149.49 254.161V279.483H153.276V254.161H149.49ZM154.276 254.161V279.483H157.464V254.161H154.276ZM158.464 254.161V279.483H162.249V254.161H158.464ZM163.249 254.161V279.483H167.035V254.161H163.249ZM168.035 254.161V279.483H171.821V254.161H168.035ZM172.821 254.161V279.483H176.606V254.161H172.821ZM205.31 145.377V206.993H209.31V145.377H205.31ZM285.972 210.546V148.93H289.972V210.546H285.972ZM374.508 153.715V215.332H378.508V153.715H374.508ZM489.105 129.503L525.664 131.416L525.455 135.41L488.896 133.497L489.105 129.503ZM488.972 245.742H488.472V245.242V218.322V217.822H488.972H493.758H498.543H503.329H508.115H512.302H517.088H521.874H524.149L526.16 216.817V215.331V213.536V212.34H527.16V213.036H551.785H552.285V213.536V223.108V232.081V245.242V245.742H551.785H541.615H531.445H521.874H517.088H512.302H508.115H503.329H498.543H493.758H488.972ZM526.639 217.695L525.118 218.455L551.285 244.053V232.365L526.639 217.695ZM541.888 244.742H550.559L527.096 221.789L541.888 244.742ZM540.698 244.742L523.994 218.822H522.582L531.798 244.742H540.698ZM530.737 244.742L522.374 221.221V244.742H530.737ZM517.588 244.742H521.374V218.822H517.588V244.742ZM516.588 244.742V218.822H512.802V244.742H516.588ZM511.802 244.742V218.822H508.615V244.742H511.802ZM507.615 244.742V218.822H503.829V244.742H507.615ZM502.829 244.742V218.822H499.043V244.742H502.829ZM498.043 244.742V218.822H494.258V244.742H498.043ZM493.258 244.742V218.822H489.472V244.742H493.258ZM527.16 216.841L551.285 231.202V223.476L527.16 216.009V216.841ZM527.16 214.962L551.285 222.43V214.036H527.16V214.962Z" fill="#8A8565"/>
<path id="Les arts musicaux" d="M111 317H204V546.5L112.5 539L113 458L177 457L175.5 385H112.5L111 317Z" fill="#85B15B" fill-opacity="0.2"/>
<path id="Arts décoratifs extra-européens" d="M112 213.704V50L203.394 62.5V104.765L204 183.509V213.704H112Z" fill="#85B15B" fill-opacity="0.2"/>
<path id="Parures et signes de l'ordre social" d="M209.5 232V115L286.5 120.5V236.5L209.5 232Z" fill="#85B15B" fill-opacity="0.2"/>
<path id="La métallurgie africaine" d="M291.5 237.481V121L374.5 126.5V242L291.5 237.481Z" fill="#85B15B" fill-opacity="0.2"/>
<path id="La préhistoire et la protohistoire africaine" d="M379.5 242V127L555.5 137.5V185.5H488.5V246.5L379.5 242Z" fill="#85B15B" fill-opacity="0.2"/>
<path id="Les étages du regard occidental" d="M457.5 128V76L555 86V133.5L457.5 128Z" fill="#85B15B" fill-opacity="0.2"/>
<path id="Après les explorations scientifiques" d="M458.492 567L457 324H554V575L458.492 567Z" fill="#85B15B" fill-opacity="0.2"/>
<path id="Etienne Loppé, Une vision du monde" d="M458.5 319.5L457 254.5H554.5V319.5H458.5Z" fill="#85B15B" fill-opacity="0.2"/>
</svg>
