<svg width="787" height="736" viewBox="0 0 787 736" fill="none" xmlns="http://www.w3.org/2000/svg">
<path fill-rule="evenodd" clip-rule="evenodd" d="M680.265 83.7611V81.9405L678.452 81.7699L576.756 72.1985L574.568 71.9926V74.1897L574.568 128.272L329.712 110.614V60.4308L329.712 58.683L327.98 58.4488L230.768 45.3066L228.5 45V47.2886V103.5L105 103.5H103V105.5L103 530.5L103 532.334L104.828 532.492L156.827 536.993L156.827 536.993L230.327 543.387L230.34 543.388L327.552 551.165L329.712 551.337V549.171V236.588L574.568 250.125L574.568 519.223L574.568 570.108L574.568 571.961L576.416 572.103L678.112 579.879L680.265 580.044V577.885V519.224V83.7611ZM228.5 539.213L159 533.167L159 412.5L198 412.5L198 408.5H157H155V410.5L155 532.82L107 528.666L107 107.5H230.5H232.5V105.5V49.5772L325.712 62.1786V112.475V114.336L327.568 114.47L576.425 132.417L578.568 132.571V132.432L606.394 133.616L606.564 129.62L578.568 128.429L578.569 76.3868L676.265 85.5817V133.639L659.848 132.613L659.598 136.605L676.265 137.647V249.822L609.374 249.822V253.822L676.265 253.822V327.59H609.373V331.59H676.265L676.265 517.224L578.568 517.223V248.233V246.34L576.679 246.236L327.822 232.477L325.712 232.36V234.474V547.005L232.5 539.548L232.5 457.215H295.91H297.91L297.91 455.215V409.75H293.91L293.91 453.215H232.5V406.965H273.178L273.178 402.965H232.5V374.661H295.91L295.91 370.661H232.5L232.5 246.045L295.91 246.045L295.91 242.045L232.5 242.045V126.5H228.5V244.045L228.5 372.661L228.5 404.965L228.5 455.215L228.5 539.213ZM578.568 521.223L676.265 521.224V575.726L578.568 568.256L578.568 521.223ZM609.972 259.099H609.472V259.599V286.519V295.492V321.814V322.314H609.972H614.758H619.543H624.329H629.115H633.302H638.088H642.874H651.847H660.82H672.785H673.285V321.814V310.747V299.68V291.305V281.733V272.76V259.599V259.099H672.785H662.615H652.445H642.874H638.088H633.302H629.115H624.329H619.543H614.758H609.972ZM610.472 286.019V260.099H614.258V286.019H610.472ZM615.258 286.019V260.099H619.043V286.019H615.258ZM620.043 286.019V260.099H623.829V286.019H620.043ZM624.829 286.019V260.099H628.615V286.019H624.829ZM629.615 286.019V260.099H632.802V286.019H629.615ZM633.802 286.019V260.099H637.588V286.019H633.802ZM638.588 286.019V260.099H642.374V286.019H638.588ZM643.374 283.62V260.099H651.737L643.374 283.62ZM643.582 286.019L652.798 260.099H661.698L644.994 286.019H643.582ZM648.096 283.052L662.888 260.099H671.558L648.096 283.052ZM646.118 286.386L672.285 260.788V272.476L647.639 287.146L646.118 286.386ZM648.159 288L672.285 273.639V281.364L648.159 288.832V288ZM648.159 289.879L672.285 282.411V290.805H648.159V289.879ZM648.159 291.805H672.285V299.017L648.159 292.124V291.805ZM648.159 293.164L672.285 300.057V309.822L648.159 294.025V293.164ZM650.7 296.884L672.285 311.017V320.525L650.7 296.884ZM647.545 294.912L671.651 321.314H661.106L645.97 295.699L647.545 294.912ZM644.981 295.992L659.944 321.314H652.221L644.739 295.992H644.981ZM643.591 295.634L651.178 321.314H643.374V295.492V294.992H642.874H638.088H633.302H629.115H624.329H619.543H614.758H610.472V287.019H614.758H619.543H624.329H629.115H633.302H638.088H642.874H645.149L647.159 288.024V289.51V291.305V292.501V293.987L645.149 294.992H644.07H643.401L643.591 295.634ZM642.374 295.992V321.314H638.588V295.992H642.374ZM637.588 295.992V321.314H633.802V295.992H637.588ZM632.802 295.992V321.314H629.615V295.992H632.802ZM628.615 295.992V321.314H624.829V295.992H628.615ZM623.829 295.992V321.314H620.043V295.992H623.829ZM619.043 295.992V321.314H615.258V295.992H619.043ZM614.258 295.992V321.314H610.472V295.992H614.258ZM297.106 368.376H297.606V367.876V340.956V331.983V305.661V305.161H297.106H292.321H287.535H282.749H277.963H273.776H268.99H264.204H255.231H246.258H234.294H233.794V305.661V316.728V327.795V336.17V345.742V354.715V367.876V368.376H234.294H244.463H254.633H264.204H268.99H273.776H277.963H282.749H287.535H292.321H297.106ZM296.606 341.456V367.376H292.821V341.456H296.606ZM291.821 341.456V367.376H288.035V341.456H291.821ZM287.035 341.456V367.376H283.249V341.456H287.035ZM282.249 341.456V367.376H278.463V341.456H282.249ZM277.463 341.456V367.376H274.276V341.456H277.463ZM273.276 341.456V367.376H269.49V341.456H273.276ZM268.49 341.456V367.376H264.704V341.456H268.49ZM263.704 343.855V367.376H255.341L263.704 343.855ZM263.496 341.456L254.28 367.376H245.38L262.084 341.456H263.496ZM258.982 344.423L244.191 367.376H235.52L258.982 344.423ZM260.96 341.089L234.794 366.687V354.999L259.44 340.329L260.96 341.089ZM258.919 339.475L234.794 353.835V346.11L258.919 338.643V339.475ZM258.919 337.596L234.794 345.064V336.67H258.919V337.596ZM258.919 335.67H234.794V328.458L258.919 335.351V335.67ZM258.919 334.311L234.794 327.418V317.653L258.919 333.449V334.311ZM256.378 330.591L234.794 316.458V306.95L256.378 330.591ZM259.533 332.563L235.427 306.161H245.973L261.108 331.775L259.533 332.563ZM262.097 331.483L247.134 306.161H254.858L262.339 331.483H262.097ZM263.487 331.841L255.9 306.161H263.704V331.983V332.483H264.204H268.99H273.776H277.963H282.749H287.535H292.321H296.606V340.456H292.321H287.535H282.749H277.963H273.776H268.99H264.204H261.93L259.919 339.45V337.965V336.17V334.974V333.488L261.93 332.483H263.008H263.677L263.487 331.841ZM264.704 331.483V306.161H268.49V331.483H264.704ZM269.49 331.483V306.161H273.276V331.483H269.49ZM274.276 331.483V306.161H277.463V331.483H274.276ZM278.463 331.483V306.161H282.249V331.483H278.463ZM283.249 331.483V306.161H287.035V331.483H283.249ZM288.035 331.483V306.161H291.821V331.483H288.035ZM292.821 331.483V306.161H296.606V331.483H292.821ZM225.514 413.201V413.701V418.487V423.272V428.058V432.844V437.031V441.817V446.603V456.174V466.344V476.514V477.014H225.014H211.853H202.88H193.308H184.933H173.866H162.799H162.299V476.514V464.549V455.576V446.603V441.817V437.031V432.844V428.058V423.272V418.487V413.701V413.201H162.799H189.121H198.094H225.014H225.514ZM224.514 414.201H198.594V417.987H224.514V414.201ZM224.514 418.987H198.594V422.772H224.514V418.987ZM224.514 423.772H198.594V427.558H224.514V423.772ZM224.514 428.558H198.594V432.344H224.514V428.558ZM224.514 433.344H198.594V436.531H224.514V433.344ZM224.514 437.531H198.594V441.317H224.514V437.531ZM224.514 442.317H198.594V446.103H224.514V442.317ZM224.514 447.103H200.993L224.514 455.466V447.103ZM224.514 456.527L198.594 447.311V448.723L224.514 465.427V456.527ZM224.514 466.617L201.561 451.825L224.514 475.288V466.617ZM223.825 476.014L198.227 449.847L197.467 451.368L212.137 476.014H223.825ZM210.973 476.014L196.613 451.889H195.781L203.248 476.014H210.973ZM202.202 476.014L194.734 451.889H193.808V476.014H202.202ZM192.808 476.014V451.889H192.489L185.596 476.014H192.808ZM184.556 476.014L191.449 451.889H190.587L174.791 476.014H184.556ZM173.596 476.014L187.729 454.429L164.088 476.014H173.596ZM163.299 475.38L189.701 451.274L188.913 449.699L163.299 464.835V475.38ZM163.299 463.673L188.621 448.71V448.468L163.299 455.95V463.673ZM163.299 454.907L188.979 447.32L189.621 447.13V447.799V448.878L190.626 450.889H192.112H193.308H195.103H196.588L197.594 448.878V446.603V441.817V437.031V432.844V428.058V423.272V418.487V414.201H189.621V418.487V423.272V428.058V432.844V437.031V441.817V446.603V447.103H189.121H163.299V454.907ZM163.299 446.103H188.621V442.317H163.299V446.103ZM163.299 441.317H188.621V437.531H163.299V441.317ZM163.299 436.531H188.621V433.344H163.299V436.531ZM163.299 432.344H188.621V428.558H163.299V432.344ZM163.299 427.558H188.621V423.772H163.299V427.558ZM163.299 422.772H188.621V418.987H163.299V422.772ZM163.299 417.987H188.621V414.201H163.299V417.987ZM326.31 206.993V145.377H330.31V206.993H326.31ZM406.972 148.93V210.546H410.972V148.93H406.972ZM495.508 215.332V153.715H499.508V215.332H495.508ZM621.534 130.219L646.655 131.415L646.464 135.41L621.343 134.214L621.534 130.219ZM299.999 279.84H299.499H294.713H289.928H285.142H280.356H276.169H271.383H266.597H257.026H246.856H236.686H236.186V279.34V266.179V257.206V247.634V247.134H236.686H261.312V246.438H262.312V247.634V249.429V250.915L264.322 251.92H266.597H271.383H276.169H280.356H285.142H289.928H294.713H299.499H299.999V252.42V279.34V279.84ZM263.353 252.554L261.832 251.793L237.186 266.463V278.151L263.353 252.554ZM237.913 278.84H246.583L261.375 255.887L237.913 278.84ZM264.477 252.92L247.773 278.84H256.673L265.889 252.92H264.477ZM266.097 255.319L257.734 278.84H266.097V255.319ZM267.097 278.84H270.883V252.92H267.097V278.84ZM271.883 252.92V278.84H275.669V252.92H271.883ZM276.669 252.92V278.84H279.856V252.92H276.669ZM280.856 252.92V278.84H284.642V252.92H280.856ZM285.642 252.92V278.84H289.428V252.92H285.642ZM290.428 252.92V278.84H294.213V252.92H290.428ZM295.213 252.92V278.84H298.999V252.92H295.213ZM237.186 265.3L261.312 250.94V250.107L237.186 257.575V265.3ZM237.186 256.528L261.312 249.06V248.134H237.186V256.528ZM609.972 245.742H609.472V245.242V218.322V217.822H609.972H614.758H619.543H624.329H629.115H633.302H638.088H642.874H645.149L647.159 216.817V215.331V213.536V212.34H648.159V213.036H672.785H673.285V213.536V223.108V232.081V245.242V245.742H672.785H662.615H652.445H642.874H638.088H633.302H629.115H624.329H619.543H614.758H609.972ZM647.639 217.695L646.118 218.455L672.285 244.053V232.365L647.639 217.695ZM662.888 244.742H671.558L648.096 221.789L662.888 244.742ZM661.698 244.742L644.994 218.822H643.582L652.798 244.742H661.698ZM651.737 244.742L643.374 221.221V244.742H651.737ZM638.588 244.742H642.374V218.822H638.588V244.742ZM637.588 244.742V218.822H633.802V244.742H637.588ZM632.802 244.742V218.822H629.615V244.742H632.802ZM628.615 244.742V218.822H624.829V244.742H628.615ZM623.829 244.742V218.822H620.043V244.742H623.829ZM619.043 244.742V218.822H615.258V244.742H619.043ZM614.258 244.742V218.822H610.472V244.742H614.258ZM648.159 216.841L672.285 231.202V223.476L648.159 216.009V216.841ZM648.159 214.962L672.285 222.43V214.036H648.159V214.962Z" fill="#8A8565"/>
<path id="Dernière grande expédition scientifique" d="M578.5 128V76L676 86V133.5L578.5 128Z" fill="#85B15B" fill-opacity="0.2"/>
<path id="Découvertes des voyageurs naturalistes charentais" d="M500.5 242V127L676.5 137.5L675.5 212H608V247L500.5 242Z" fill="#85B15B" fill-opacity="0.2"/>
<path id="Voyageurs naturalistes charentais" d="M412.5 237.481V121L495.5 126.5V242L412.5 237.481Z" fill="#85B15B" fill-opacity="0.2"/>
<path id="Le cabinet de dessins du muséum" d="M330.5 232V115L407.5 120.5V236.5L330.5 232Z" fill="#85B15B" fill-opacity="0.2"/>
<path id="Mollusques et environnements tropicaux" d="M232.5 539.5V457H325V547.5L232.5 539.5Z" fill="#85B15B" fill-opacity="0.2"/>
<path id="Les campagnes océanographiques" d="M300 242H325V456.671L300 456V242Z" fill="#85B15B" fill-opacity="0.2"/>
<path id="Faune de la côte aux abysses" d="M232.5 242V50L324.894 62.8231V114.116L325.5 206.303L324.894 232.296V241.653L232.5 242Z" fill="#85B15B" fill-opacity="0.2"/>
<path id="La galerie de zoologie" d="M107.5 108H227.5V411.5H156V532.5L107.5 528V108Z" fill="#85B15B" fill-opacity="0.2"/>
</svg>
