<svg width="787" height="736" viewBox="0 0 787 736" fill="none" xmlns="http://www.w3.org/2000/svg">
<path fill-rule="evenodd" clip-rule="evenodd" d="M680.265 81.9405V83.7611V519.224V577.885V580.044L678.112 579.879L576.416 572.103L576.411 572.102L488.5 565.164V570.108V572.108H486.5H471.5H469.5V570.108V555.5L469.5 553.5H471.5L486.5 553.5H488.5L488.5 555.5L488.5 561.152L574.568 567.944V519.223L574.568 250.125L476.389 244.697L476.61 240.703L576.679 246.236L578.568 246.34V248.233V517.223L676.265 517.224L676.265 331.59H609.373V327.59H676.265V253.822L609.374 253.822V249.822L676.265 249.822V137.647L659.598 136.605L659.848 132.613L676.265 133.639V85.5817L578.569 76.3868L578.568 128.429L606.564 129.62L606.394 133.616L578.568 132.432V132.571L576.425 132.417L327.568 114.47L325.712 114.336V112.475V62.1786L232.5 49.5772V105.5V107.5H230.5H107L107 223.5H130V227.5H107L107 316H127V320H107L107 408.5L157 408.5H198L198 412.5L159 412.5L159 533.167L228.5 539.213L228.5 455.215L228.5 404.965L228.5 372.661L228.5 320H150V316H228.5L228.5 290.5V263L232.5 263L232.5 288.5L295.91 288.5L295.91 292.5H232.5L232.5 318L232.5 370.661H295.91L295.91 374.661H232.5V404.965V453.215H273.178L273.178 457.215L232.5 457.215L232.5 539.548L325.712 547.005V457.215H295.91L295.91 453.215H325.712V250L325.712 234.474V232.36L326.31 232.393V145.377H330.31V232.615L406.972 236.853V148.93H410.972V237.074L452.251 239.357L452.03 243.35L329.712 236.588V250V455.215V547.31L413.5 553.351L413.5 549.171L413.5 547.171H415.5L430.5 547.171H432.5V549.171L432.5 563V565H430.5L415.5 565H413.5V563V557.361L327.568 551.166L327.56 551.165L327.552 551.165L230.34 543.388L230.327 543.387L156.827 536.993L156.827 536.993L104.828 532.492L103 532.334L103 530.5L103 410.5L103 318L103 225.5V105.5V103.5H105L228.5 103.5V47.2886V45L230.768 45.3066L327.98 58.4488L329.712 58.683L329.712 60.4308V110.614L574.568 128.272L574.568 74.1897V71.9926L576.756 72.1985L678.452 81.7699L680.265 81.9405ZM155 532.82L155 412.5H107L107 528.666L155 532.82ZM676.265 521.224L578.568 521.223L578.568 568.256L676.265 575.726V521.224ZM228.5 223.5L228.5 126.5H232.5L232.5 225.5V239L228.5 239L228.5 227.5H147.5V223.5H228.5ZM473.5 557.5V568.108H484.5L484.5 563V557.5H473.5ZM417.5 551.171V555.5V561H428.5V551.171H417.5ZM609.472 259.099H609.972H614.758H619.543H624.329H629.115H633.302H638.088H642.874H652.445H662.615H672.785H673.285V259.599V272.76V281.733V291.305V299.68V310.747V321.814V322.314H672.785H660.82H651.847H642.874H638.088H633.302H629.115H624.329H619.543H614.758H609.972H609.472V321.814V295.492V286.519V259.599V259.099ZM610.472 260.099V286.019H614.258V260.099H610.472ZM615.258 260.099V286.019H619.043V260.099H615.258ZM620.043 260.099V286.019H623.829V260.099H620.043ZM624.829 260.099V286.019H628.615V260.099H624.829ZM629.615 260.099V286.019H632.802V260.099H629.615ZM633.802 260.099V286.019H637.588V260.099H633.802ZM638.588 260.099V286.019H642.374V260.099H638.588ZM643.374 260.099V283.62L651.737 260.099H643.374ZM652.798 260.099L643.582 286.019H644.994L661.698 260.099H652.798ZM662.888 260.099L648.096 283.052L671.558 260.099H662.888ZM672.285 260.788L646.118 286.386L647.639 287.146L672.285 272.476V260.788ZM672.285 273.639L648.159 288V288.832L672.285 281.364V273.639ZM672.285 282.411L648.159 289.879V290.805H672.285V282.411ZM672.285 291.805H648.159V292.124L672.285 299.017V291.805ZM672.285 300.057L648.159 293.164V294.025L672.285 309.822V300.057ZM672.285 311.017L650.7 296.884L672.285 320.525V311.017ZM671.651 321.314L647.545 294.912L645.97 295.699L661.106 321.314H671.651ZM659.944 321.314L644.981 295.992H644.739L652.221 321.314H659.944ZM651.178 321.314L643.591 295.634L643.401 294.992H644.07H645.149L647.159 293.987V292.501V291.305V289.51V288.024L645.149 287.019H642.874H638.088H633.302H629.115H624.329H619.543H614.758H610.472V294.992H614.758H619.543H624.329H629.115H633.302H638.088H642.874H643.374V295.492V321.314H651.178ZM642.374 321.314V295.992H638.588V321.314H642.374ZM637.588 321.314V295.992H633.802V321.314H637.588ZM632.802 321.314V295.992H629.615V321.314H632.802ZM628.615 321.314V295.992H624.829V321.314H628.615ZM623.829 321.314V295.992H620.043V321.314H623.829ZM619.043 321.314V295.992H615.258V321.314H619.043ZM614.258 321.314V295.992H610.472V321.314H614.258ZM297.606 364.376H297.106H292.321H287.535H282.749H277.964H273.776H268.99H264.205H254.633H244.463H234.294H233.794V363.876V350.715V341.742V332.17V323.795V312.728V301.661V301.161H234.294H246.258H255.231H264.205H268.99H273.776H277.964H282.749H287.535H292.321H297.106H297.606V301.661V327.983V336.956V363.876V364.376ZM296.606 363.376V337.456H292.821V363.376H296.606ZM291.821 363.376V337.456H288.035V363.376H291.821ZM287.035 363.376V337.456H283.249V363.376H287.035ZM282.249 363.376V337.456H278.464V363.376H282.249ZM277.464 363.376V337.456H274.276V363.376H277.464ZM273.276 363.376V337.456H269.49V363.376H273.276ZM268.49 363.376V337.456H264.705V363.376H268.49ZM263.705 363.376V339.855L255.341 363.376H263.705ZM254.28 363.376L263.496 337.456H262.084L245.38 363.376H254.28ZM244.191 363.376L258.982 340.423L235.52 363.376H244.191ZM234.794 362.687L260.96 337.089L259.44 336.329L234.794 350.999V362.687ZM234.794 349.835L258.919 335.475V334.643L234.794 342.11V349.835ZM234.794 341.064L258.919 333.596V332.67H234.794V341.064ZM234.794 331.67H258.919V331.351L234.794 324.458V331.67ZM234.794 323.418L258.919 330.311V329.449L234.794 313.653V323.418ZM234.794 312.458L256.378 326.591L234.794 302.95V312.458ZM235.427 302.161L259.533 328.563L261.108 327.775L245.973 302.161H235.427ZM247.134 302.161L262.097 327.483H262.339L254.858 302.161H247.134ZM255.9 302.161L263.488 327.841L263.677 328.483H263.008H261.93L259.919 329.488V330.974V332.17V333.965V335.45L261.93 336.456H264.205H268.99H273.776H277.964H282.749H287.535H292.321H296.606V328.483H292.321H287.535H282.749H277.964H273.776H268.99H264.205H263.705V327.983V302.161H255.9ZM264.705 302.161V327.483H268.49V302.161H264.705ZM269.49 302.161V327.483H273.276V302.161H269.49ZM274.276 302.161V327.483H277.464V302.161H274.276ZM278.464 302.161V327.483H282.249V302.161H278.464ZM283.249 302.161V327.483H287.035V302.161H283.249ZM288.035 302.161V327.483H291.821V302.161H288.035ZM292.821 302.161V327.483H296.606V302.161H292.821ZM225.715 416V415.5H225.215H198.295H189.322H163H162.5V416V420.786V425.571V430.357V435.143V439.33V444.116V448.902V457.875V466.848V478.813V479.313H163H174.067H185.134H193.509H203.081H212.054H225.215H225.715V478.813V468.643V458.473V448.902V444.116V439.33V435.143V430.357V425.571V420.786V416ZM198.795 416.5H224.715V420.286H198.795V416.5ZM198.795 421.286H224.715V425.071H198.795V421.286ZM198.795 426.071H224.715V429.857H198.795V426.071ZM198.795 430.857H224.715V434.643H198.795V430.857ZM198.795 435.643H224.715V438.83H198.795V435.643ZM198.795 439.83H224.715V443.616H198.795V439.83ZM198.795 444.616H224.715V448.402H198.795V444.616ZM201.194 449.402H224.715V457.765L201.194 449.402ZM198.795 449.61L224.715 458.826V467.726L198.795 451.022V449.61ZM201.762 454.124L224.715 468.916V477.587L201.762 454.124ZM198.428 452.146L224.026 478.313H212.338L197.668 453.667L198.428 452.146ZM196.814 454.188L211.175 478.313H203.449L195.982 454.188H196.814ZM194.935 454.188L202.403 478.313H194.009V454.188H194.935ZM193.009 454.188V478.313H185.797L192.69 454.188H193.009ZM191.65 454.188L184.757 478.313H174.992L190.788 454.188H191.65ZM187.93 456.728L173.797 478.313H164.289L187.93 456.728ZM189.902 453.573L163.5 477.679V467.134L189.114 451.998L189.902 453.573ZM188.822 451.009L163.5 465.972V458.249L188.822 450.767V451.009ZM189.18 449.619L163.5 457.206V449.402H189.322H189.822V448.902V444.116V439.33V435.143V430.357V425.571V420.786V416.5H197.795V420.786V425.571V430.357V435.143V439.33V444.116V448.902V451.177L196.79 453.188H195.304H193.509H192.313H190.827L189.822 451.177V450.098V449.429L189.18 449.619ZM188.822 448.402H163.5V444.616H188.822V448.402ZM188.822 443.616H163.5V439.83H188.822V443.616ZM188.822 438.83H163.5V435.643H188.822V438.83ZM188.822 434.643H163.5V430.857H188.822V434.643ZM188.822 429.857H163.5V426.071H188.822V429.857ZM188.822 425.071H163.5V421.286H188.822V425.071ZM188.822 420.286H163.5V416.5H188.822V420.286ZM495.508 153.715V215.332H499.508V153.715H495.508ZM626 222.616V161H630V222.616H626ZM621.534 130.219L646.655 131.415L646.464 135.41L621.343 134.214L621.534 130.219Z" fill="#8A8565"/>
<path id="Accueil" d="M330.5 232V115L407.5 120.5V236.5L330.5 232Z" fill="#85B15B" fill-opacity="0.2"/>
<path id="Les marais litoraux" d="M232 228V50L324.394 61.8881V109.44L325 194.906L324.394 219.004V227.679L232 228Z" fill="#85B15B" fill-opacity="0.2"/>
<path id="Les oiseaux seigneurs des marais" d="M108 228H228V314H108V228Z" fill="#85B15B" fill-opacity="0.2"/>
<path id="Le marais un territoire menacé" d="M107.5 323H227.5V406.5H107.5V323Z" fill="#85B15B" fill-opacity="0.2"/>
<path id="Le cabinet Lafaille" d="M108 108H228V222H108V108Z" fill="#85B15B" fill-opacity="0.2"/>
</svg>
