<svg width="666" height="600" viewBox="0 0 666 600" fill="none" xmlns="http://www.w3.org/2000/svg">
<path fill-rule="evenodd" clip-rule="evenodd" d="M562.5 150.5L562.5 148.629L560.633 148.504L455.701 141.504L453.568 141.362V143.5V197.865L205.5 181.627V126.5V124.688L203.697 124.51L107.697 115.01L105.5 114.792L105.5 117L105.5 287.006L105.5 318.5L105.5 390L105.5 392H107.5H203.5H205.5L205.5 390V309.083L453.568 319.153L453.568 392.5V394.5H455.568H560.5H562.5L562.5 392.5V325.5L562.5 261V234L562.5 150.5ZM457.568 200V145.638L558.5 152.371L558.5 232H503H501V234V261V263H503H558.5L558.5 323.5L491.5 323.5L491.5 327.5H558.5V390.5L457.568 390.5V317.233V315.312L455.649 315.234L203.581 305.002L201.5 304.917V307V388L109.5 388L109.5 320.5L174.91 320.5V316.5L109.5 316.5L109.5 289.006L174.91 289.006V285.006H109.5L109.5 119.208L201.5 128.312V183.5L201.5 185.373L203.369 185.496L455.438 201.996L457.568 202.135V200ZM505 236H558.5V259H505L505 236ZM492.5 263.5H493H497.8H502.6H507.4H512.2H516.4H521.2H526H535.6H545.8H556H556.5V264V276.481V284.99V294.067V302.01V312.505V323V323.5H556H544H535H526H521.2H516.4H512.2H507.4H502.6H497.8H493H492.5V323V298.038V289.529V264V263.5ZM493.5 264.5V289.029H497.3V264.5H493.5ZM498.3 264.5V289.029H502.1V264.5H498.3ZM503.1 264.5V289.029H506.9V264.5H503.1ZM507.9 264.5V289.029H511.7V264.5H507.9ZM512.7 264.5V289.029H515.9V264.5H512.7ZM516.9 264.5V289.029H520.7V264.5H516.9ZM521.7 264.5V289.029H525.5V264.5H521.7ZM526.5 264.5V286.779L534.878 264.5H526.5ZM535.946 264.5L526.722 289.029H528.136L544.854 264.5H535.946ZM546.064 264.5L531.293 286.171L554.723 264.5H546.064ZM555.5 265.143L529.283 289.393L530.78 290.101L555.5 276.188V265.143ZM555.5 277.336L531.3 290.956V291.698L555.5 284.616V277.336ZM555.5 285.658L531.3 292.74V293.567H555.5V285.658ZM555.5 294.567H531.3V294.819L555.5 301.357V294.567ZM555.5 302.392L531.3 295.855V296.625L555.5 311.607V302.392ZM555.5 312.783L533.94 299.436L555.5 321.762V312.783ZM554.822 322.5L530.689 297.509L529.122 298.25L544.277 322.5H554.822ZM543.098 322.5L528.123 298.538H527.88L535.368 322.5H543.098ZM534.32 322.5L526.723 298.188L526.52 297.538H527.2H528.288L530.3 296.587V295.202V294.067V292.365V290.98L528.288 290.029H526H521.2H516.4H512.2H507.4H502.6H497.8H493.5V297.538H497.8H502.6H507.4H512.2H516.4H521.2H526H526.5V298.038V322.5H534.32ZM525.5 322.5V298.538H521.7V322.5H525.5ZM520.7 322.5V298.538H516.9V322.5H520.7ZM515.9 322.5V298.538H512.7V322.5H515.9ZM511.7 322.5V298.538H507.9V322.5H511.7ZM506.9 322.5V298.538H503.1V322.5H506.9ZM502.1 322.5V298.538H498.3V322.5H502.1ZM497.3 322.5V298.538H493.5V322.5H497.3ZM175.313 385.715H174.813H170.027H165.241H160.456H155.67H151.482H146.697H141.911H132.339H122.17H112H111.5V385.215V372.054V363.081V353.509V345.134V334.067V323V322.5H112H123.964H132.938L141.911 322.5H146.697H151.482H155.67H160.456H165.241H170.027H174.813H175.313V323V349.322V358.295V385.215V385.715ZM174.313 384.715V358.795H170.527V384.715H174.313ZM169.527 384.715V358.795H165.741V384.715H169.527ZM164.741 384.715V358.795H160.956V384.715H164.741ZM159.956 384.715V358.795H156.17V384.715H159.956ZM155.17 384.715V358.795H151.982V384.715H155.17ZM150.982 384.715V358.795H147.197V384.715H150.982ZM146.197 384.715V358.795L142.411 358.795V384.715H146.197ZM141.411 384.715V361.194L133.048 384.715H141.411ZM131.986 384.715L141.202 358.795H139.791L123.087 384.715H131.986ZM121.897 384.715L136.689 361.762L113.226 384.715H121.897ZM112.5 384.026L138.667 358.428L137.146 357.668L112.5 372.338V384.026ZM112.5 371.174L136.625 356.814V355.982L112.5 363.449V371.174ZM112.5 362.402L136.625 354.935V354.009H112.5V362.402ZM112.5 353.009H136.625V352.69L112.5 345.797V353.009ZM112.5 344.757L136.625 351.65V350.788L112.5 334.992V344.757ZM112.5 333.797L134.085 347.93L112.5 324.289V333.797ZM113.134 323.5L137.24 349.902L138.815 349.114L123.679 323.5H113.134ZM124.841 323.5L139.803 348.821H140.045L132.564 323.5H124.841ZM133.607 323.5L141.194 349.18L141.384 349.822L140.714 349.821H139.636L137.625 350.827V352.313V353.509V355.304V356.789L139.636 357.795H141.911L146.697 357.795H151.482H155.67H160.456H165.241H170.027H174.313V349.822H170.027H165.241H160.456H155.67H151.482H146.697H141.911H141.411V349.322V323.5L133.607 323.5ZM142.411 323.5V348.822H146.197V323.5H142.411ZM147.197 323.5V348.822H150.982V323.5H147.197ZM151.982 323.5V348.822H155.17V323.5H151.982ZM156.17 323.5V348.822H159.956V323.5H156.17ZM160.956 323.5V348.822H164.741V323.5H160.956ZM165.741 323.5V348.822H169.527V323.5H165.741ZM170.527 323.5V348.822H174.313V323.5H170.527Z" fill="#8A8565"/>
<path id="Un médiateur le chaman aux Amériques" d="M459.538 390L458 328H558V390H459.538Z" fill="#85B15B" fill-opacity="0.2"/>
<path id="Interpréter la nature" d="M110 284.5V119.5L200.5 129V186.5L458.5 203V146L558 153L557 231.5H500V262.5H491V326.5H457.5V314.5L202 304.5L175.5 284.5H110Z" fill="#85B15B" fill-opacity="0.2"/>
</svg>
